<svg width="380" height="110" viewBox="0 0 380 110" fill="none" xmlns="http://www.w3.org/2000/svg">
<mask id="mask0_1_57" style="mask-type:luminance" maskUnits="userSpaceOnUse" x="160" y="6" width="220" height="83">
<path d="M380 6.70732H160.769V88.5366H380V6.70732Z" fill="white"/>
</mask>
<g mask="url(#mask0_1_57)">
<path d="M164.993 43.2661H173.443V47.7936H173.879C174.014 47.322 174.367 46.6932 174.938 45.9072C175.503 45.1107 176.349 44.3718 177.47 43.6854C178.602 43.0041 179.988 42.6583 181.622 42.6583C183.434 42.6583 184.949 43.088 186.169 43.9369C187.383 44.7753 188.287 45.6661 188.868 46.5988C189.449 47.5368 189.792 48.2285 189.906 48.6739H190.3C190.799 47.4163 191.691 46.1063 192.978 44.7334C194.276 43.35 196.326 42.6583 199.124 42.6583C201.667 42.6583 203.67 43.329 205.123 44.6705C206.577 46.012 207.563 47.563 208.092 49.3237C208.616 51.0844 208.881 52.7402 208.881 54.2913V72.4011H200.431V55.2764C200.431 53.5577 199.98 52.2529 199.082 51.3568C198.194 50.4503 197.115 49.9944 195.843 49.9944C194.582 49.9944 193.487 50.4556 192.563 51.3778C191.634 52.2896 191.172 53.5891 191.172 55.2764V72.4011H182.702V55.2764C182.702 53.5577 182.256 52.2529 181.373 51.3568C180.486 50.4503 179.406 49.9944 178.135 49.9944C176.858 49.9944 175.758 50.4556 174.834 51.3778C173.905 52.2896 173.443 53.5891 173.443 55.2764V72.4011H164.993V43.2661Z" fill="#7ED957"/>
<path d="M223.169 72.9041C220.122 72.9041 217.553 72.2019 215.467 70.7871C213.375 69.3618 211.823 67.5068 210.816 65.2116C209.82 62.9217 209.322 60.4536 209.322 57.8126C209.322 55.1716 209.82 52.7088 210.816 50.4136C211.823 48.108 213.375 46.2425 215.467 44.8172C217.553 43.3814 220.164 42.6583 223.293 42.6583C227.362 42.6583 230.591 43.9578 232.989 46.5569C235.397 49.1455 236.601 52.8974 236.601 57.8126V60.1812H217.501V60.6213C217.501 62.1305 218.02 63.43 219.058 64.52C220.096 65.5994 221.415 66.1339 223.024 66.1339C224.254 66.1339 225.307 65.8509 226.179 65.2745C227.051 64.7034 227.664 63.9435 228.027 62.9899H236.373C235.651 65.8824 234.151 68.2614 231.868 70.1164C229.594 71.9766 226.698 72.9041 223.169 72.9041ZM228.463 54.6686C228.432 52.6878 227.933 51.2206 226.968 50.2669C225.997 49.3185 224.716 48.8416 223.127 48.8416C221.492 48.8416 220.19 49.3604 219.224 50.3927C218.254 51.4145 217.756 52.8398 217.73 54.6686H228.463Z" fill="#7ED957"/>
<path d="M237.364 43.2661H245.814V47.8984H246.25C246.676 46.6146 247.537 45.5246 248.824 44.6286C250.122 43.722 251.814 43.2661 253.89 43.2661C254.497 43.2661 255.078 43.3238 255.634 43.4338L255.239 51.3149C254.409 51.0215 253.443 50.8748 252.354 50.8748C250.07 50.8748 248.409 51.4616 247.371 52.6354C246.333 53.8092 245.814 55.7533 245.814 58.4624V72.4011H237.364V43.2661Z" fill="#7ED957"/>
<path d="M267.463 72.9041C264.375 72.9041 261.785 72.1915 259.698 70.7661C257.607 69.3304 256.055 67.4649 255.048 65.1697C254.051 62.8641 253.553 60.3908 253.553 57.7498C253.553 55.1088 254.051 52.6459 255.048 50.3507C256.055 48.0608 257.607 46.2111 259.698 44.7963C261.785 43.3709 264.375 42.6583 267.463 42.6583C271.324 42.6583 274.386 43.7849 276.66 46.0329C278.928 48.2704 280.319 51.1158 280.832 54.5638H272.528C272.321 53.0546 271.791 51.8494 270.951 50.9376C270.12 50.0154 268.989 49.5543 267.567 49.5543C265.532 49.5543 264.079 50.3507 263.207 51.9437C262.335 53.5367 261.899 55.4756 261.899 57.7498C261.899 60.0711 262.335 62.0257 263.207 63.6187C264.079 65.2116 265.532 66.0081 267.567 66.0081C268.989 66.0081 270.12 65.5418 270.951 64.6038C271.791 63.6711 272.321 62.4658 272.528 60.9986H280.832C280.319 64.4518 278.933 67.3024 276.68 69.5504C274.423 71.788 271.35 72.9041 267.463 72.9041Z" fill="#7ED957"/>
<path d="M291.307 72.9041C287.736 72.9041 284.975 71.5364 283.023 68.7959C281.082 66.0605 280.117 62.3977 280.117 57.8126C280.117 53.1909 281.113 49.5071 283.106 46.7665C285.11 44.0312 287.881 42.6583 291.411 42.6583C293.845 42.6583 295.713 43.2033 297.016 44.2932C298.329 45.3727 299.242 46.4626 299.756 47.563H300.192V43.2661H308.746V72.4011H300.192V67.7269H299.756C299.201 68.9007 298.261 70.064 296.933 71.2063C295.615 72.3382 293.741 72.9041 291.307 72.9041ZM294.525 66.0081C296.445 66.0081 297.877 65.1907 298.822 63.5558C299.761 61.9209 300.234 59.9873 300.234 57.7498C300.234 55.5594 299.761 53.6415 298.822 52.0066C297.877 50.3717 296.445 49.5543 294.525 49.5543C292.516 49.5543 291.047 50.3507 290.123 51.9437C289.194 53.5367 288.732 55.4598 288.732 57.7078C288.732 59.9716 289.194 61.9209 290.123 63.5558C291.047 65.1907 292.516 66.0081 294.525 66.0081Z" fill="#7ED957"/>
<path d="M321.075 72.9041C317.514 72.9041 314.764 71.5364 312.812 68.7959C310.871 66.0605 309.906 62.3977 309.906 57.8126C309.906 53.149 310.871 49.4599 312.812 46.7456C314.764 44.0207 317.535 42.6583 321.137 42.6583C323.571 42.6583 325.455 43.2033 326.784 44.2932C328.113 45.3727 329.026 46.4626 329.524 47.563H329.96V31.0462H338.534V72.401H329.96V67.7269H329.524C328.912 68.974 327.952 70.1478 326.639 71.2482C325.32 72.3539 323.467 72.9041 321.075 72.9041ZM324.23 66.1339C326.166 66.1339 327.614 65.3112 328.569 63.6606C329.535 61.9995 330.023 60.0502 330.023 57.8126C330.023 55.6066 329.545 53.6992 328.59 52.0905C327.645 50.4713 326.192 49.6591 324.23 49.6591C322.279 49.6591 320.836 50.466 319.912 52.0695C318.983 53.6625 318.521 55.5804 318.521 57.8126C318.521 60.0502 318.983 61.9995 319.912 63.6606C320.836 65.3112 322.279 66.1339 324.23 66.1339Z" fill="#7ED957"/>
<path d="M352.872 72.9041C349.81 72.9041 347.235 72.2281 345.149 70.8709C343.057 69.5033 341.5 67.6797 340.478 65.4003C339.466 63.1261 338.962 60.5951 338.962 57.8126C338.962 55.0616 339.466 52.5411 340.478 50.2459C341.5 47.9403 343.057 46.1063 345.149 44.7334C347.235 43.35 349.81 42.6583 352.872 42.6583C355.929 42.6583 358.503 43.3447 360.595 44.7124C362.681 46.0696 364.233 47.8931 365.245 50.1831C366.267 52.4782 366.781 54.9987 366.781 57.7498C366.781 60.506 366.267 63.0318 365.245 65.3374C364.233 67.6326 362.681 69.4666 360.595 70.85C358.503 72.2229 355.929 72.9041 352.872 72.9041ZM352.872 66.0081C354.766 66.0081 356.162 65.2221 357.065 63.6396C357.979 62.0624 358.436 60.0868 358.436 57.7078C358.436 55.3184 357.979 53.3638 357.065 51.8389C356.162 50.3193 354.766 49.5543 352.872 49.5543C350.972 49.5543 349.571 50.3245 348.657 51.8599C347.754 53.4005 347.308 55.3498 347.308 57.7078C347.308 60.0868 347.77 62.0624 348.699 63.6396C349.623 65.2221 351.014 66.0081 352.872 66.0081Z" fill="#7ED957"/>
<path d="M373.592 72.9041C372.247 72.9041 371.142 72.443 370.27 71.5207C369.398 70.5985 368.962 69.4823 368.962 68.1671C368.962 66.8413 369.398 65.7304 370.27 64.8344C371.142 63.9278 372.247 63.4719 373.592 63.4719C374.946 63.4719 376.067 63.9278 376.955 64.8344C377.837 65.7304 378.284 66.8413 378.284 68.1671C378.284 69.4823 377.827 70.5985 376.913 71.5207C376.01 72.443 374.905 72.9041 373.592 72.9041Z" fill="#7ED957"/>
</g>
<mask id="mask1_1_57" style="mask-type:luminance" maskUnits="userSpaceOnUse" x="0" y="0" width="161" height="110">
<path d="M160.769 0H0V110H160.769V0Z" fill="white"/>
</mask>
<g mask="url(#mask1_1_57)">
<path d="M26.4882 68.4271C31.0244 63.2027 34.6471 57.9364 37.3459 52.623C40.0448 47.3148 41.3942 43.2956 41.3942 40.5708C41.3942 39.5647 41.197 38.8101 40.8129 38.3071C40.4237 37.804 39.8008 37.3114 38.9445 36.8189C38.0985 36.3158 37.4757 35.8128 37.076 35.3097C36.6868 34.8067 36.4947 34.0521 36.4947 33.046C36.4947 31.8303 36.9359 30.8137 37.8234 29.9858C38.7213 29.1631 39.806 28.7491 41.0828 28.7491C42.645 28.7491 43.9581 29.3937 45.0273 30.6775C46.0913 31.9665 46.6259 33.4757 46.6259 35.2049C46.6259 39.79 44.2592 46.01 39.5258 53.8596C34.8028 61.7145 28.5071 70.1616 20.6337 79.2007H18.703L18.8068 71.5502C18.8068 61.9504 18.2722 53.0579 17.2082 44.8677C16.5699 40.2145 15.8225 37.0861 14.9661 35.4774C14.1201 33.8582 12.916 33.046 11.3538 33.046C10.077 33.046 9.08051 33.1508 8.36427 33.3604V31.4321L22.1077 28.7491C23.8205 33.5595 24.9623 39.4075 25.5332 46.293C26.0989 53.168 26.4155 60.546 26.4882 68.4271Z" fill="#7ED957"/>
<path d="M73.7957 28.7491C76.7696 28.7491 79.2661 29.5037 81.2902 31.0128C83.3248 32.5115 84.342 34.4451 84.342 36.8189C84.342 39.114 83.2729 41.7341 81.1449 44.679C79.0118 47.6135 75.5448 50.2125 70.7439 52.4763C65.9534 54.7295 59.8654 55.9557 52.4747 56.1653C52.0595 57.6063 51.8519 59.367 51.8519 61.4473C51.8519 65.8228 53.0196 68.993 55.3604 70.9633C57.6959 72.9336 60.291 73.9187 63.1456 73.9187C67.8893 73.9187 72.7213 71.5188 77.6364 66.7084L79.0066 68.0079C71.4082 75.4698 64.059 79.2007 56.9589 79.2007C54.0525 79.2007 51.5093 78.4671 49.3398 76.9999C47.1652 75.5222 45.5251 73.5991 44.4196 71.2358C43.3245 68.862 42.7795 66.4254 42.7795 63.9206C42.7795 58.9059 44.2172 53.6396 47.0977 48.1165C49.973 42.583 53.8085 37.9717 58.599 34.2827C63.3999 30.5936 68.4654 28.7491 73.7957 28.7491ZM53.1182 54.1321C57.9451 53.7706 61.8584 52.9479 64.8479 51.6588C67.7544 50.3593 70.1107 48.6929 71.9273 46.6493C73.7386 44.6109 75.0309 42.6039 75.8095 40.6337C76.5984 38.6634 76.9928 37.0285 76.9928 35.7289C76.9928 34.5132 76.5413 33.3919 75.6434 32.3543C74.7559 31.3063 73.4947 30.7823 71.865 30.7823C69.026 30.7823 66.27 32.1133 63.6023 34.7648C60.945 37.4215 58.6717 40.5813 56.7929 44.2388C54.9088 47.8859 53.684 51.1872 53.1182 54.1321Z" fill="#7ED957"/>
<path d="M94.6721 53.7968C98.575 47.2047 102.919 41.383 107.71 36.3368C112.511 31.2801 116.907 28.7491 120.893 28.7491C123.01 28.7491 124.546 29.4513 125.501 30.8452C126.467 32.2443 126.955 33.8739 126.955 35.7289C126.955 38.5271 126.238 42.4362 124.816 47.4667L122.055 56.9199L122.263 57.1504C126.815 48.892 131.574 42.0956 136.546 36.756C141.513 31.4216 146.163 28.7491 150.497 28.7491C151.852 28.7491 153.144 29.3098 154.379 30.426C155.625 31.5316 156.248 33.3761 156.248 35.9595C156.248 36.7455 156.144 37.7411 155.936 38.9568C155.729 40.1725 155.511 41.252 155.293 42.1847L148.483 66.2891C148.328 66.7241 148.073 67.5834 147.715 68.8673C147.367 70.1563 147.196 71.1205 147.196 71.7598C147.196 73.0593 147.591 73.7091 148.379 73.7091C149.293 73.7091 150.544 72.8497 152.137 71.131C153.741 69.4122 155.075 67.7983 156.144 66.2891L157.535 67.5677C155.542 70.6594 153.102 73.3685 150.227 75.7004C147.362 78.0322 144.861 79.2007 142.733 79.2007C141.944 79.2007 141.118 78.8549 140.262 78.1737C139.416 77.4925 138.996 76.3239 138.996 74.6733C138.996 72.593 139.629 69.2603 140.906 64.6752L146.553 44.658C147.409 41.797 147.84 39.5385 147.84 37.8878C147.84 37.0232 147.601 36.2896 147.134 35.687C146.677 35.0739 146.096 34.7648 145.39 34.7648C143.117 34.7648 140.683 36.0224 138.082 38.5376C135.492 41.0424 132.705 44.4432 129.716 48.7453C127.017 52.6177 124.702 56.3487 122.782 59.9382C120.872 63.5329 119.631 66.3258 119.066 68.3223C117.291 74.1388 116.336 77.33 116.201 77.9012H108.208L116.844 47.1314C117.187 45.989 117.592 44.4642 118.048 42.562C118.515 40.6651 118.754 39.1036 118.754 37.8878C118.754 36.9551 118.484 36.2215 117.945 35.687C117.415 35.142 116.803 34.8696 116.097 34.8696C113.964 34.8696 111.405 36.2005 108.416 38.852C105.436 41.5088 102.457 45.093 99.4677 49.6047C97.1945 52.9741 95.3831 56.0081 94.0285 58.7015C92.6843 61.3844 91.3348 64.9582 89.9802 69.4122C88.4854 74.5004 87.7017 77.33 87.6343 77.9012H79.4339L89.8764 41.0109C90.5096 38.8625 90.8314 37.28 90.8314 36.2739C90.8314 33.984 89.6584 32.8364 87.3229 32.8364C85.8956 32.8364 84.7278 32.9779 83.8143 33.2556V31.3273L99.6754 28.7491H101.606L94.4645 53.5872L94.6721 53.7968Z" fill="#7ED957"/>
</g>
</svg>
